<mxfile host="app.diagrams.net" modified="2021-06-20T13:49:10.466Z" agent="5.0 (Windows)" etag="K-3OrOi404H-wWxwfRqi" version="14.7.10" type="github">
  <diagram id="tEwjiB7kQ2oCe1XIUxjq" name="Page-1">
    <mxGraphModel dx="981" dy="519" grid="1" gridSize="10" guides="1" tooltips="1" connect="1" arrows="1" fold="1" page="1" pageScale="1" pageWidth="827" pageHeight="1169" math="0" shadow="0">
      <root>
        <mxCell id="0" />
        <mxCell id="1" parent="0" />
        <mxCell id="59ImfeG7UWyl2Eb4sFpq-1" value="" style="endArrow=classic;html=1;fillColor=#e51400;strokeColor=#B20000;" edge="1" parent="1">
          <mxGeometry width="50" height="50" relative="1" as="geometry">
            <mxPoint x="40" y="160" as="sourcePoint" />
            <mxPoint x="130" y="160" as="targetPoint" />
          </mxGeometry>
        </mxCell>
        <mxCell id="59ImfeG7UWyl2Eb4sFpq-2" value="" style="endArrow=classic;html=1;" edge="1" parent="1">
          <mxGeometry width="50" height="50" relative="1" as="geometry">
            <mxPoint x="130" y="200" as="sourcePoint" />
            <mxPoint x="40" y="200" as="targetPoint" />
          </mxGeometry>
        </mxCell>
        <mxCell id="59ImfeG7UWyl2Eb4sFpq-3" value="Meter" style="whiteSpace=wrap;html=1;aspect=fixed;" vertex="1" parent="1">
          <mxGeometry x="130" y="240" width="80" height="80" as="geometry" />
        </mxCell>
        <mxCell id="59ImfeG7UWyl2Eb4sFpq-4" value="Meter" style="whiteSpace=wrap;html=1;aspect=fixed;" vertex="1" parent="1">
          <mxGeometry x="130" y="140" width="80" height="80" as="geometry" />
        </mxCell>
        <mxCell id="59ImfeG7UWyl2Eb4sFpq-5" value="" style="endArrow=classic;html=1;fillColor=#e51400;strokeColor=#B20000;" edge="1" parent="1">
          <mxGeometry width="50" height="50" relative="1" as="geometry">
            <mxPoint x="40" y="259.5" as="sourcePoint" />
            <mxPoint x="130" y="259.5" as="targetPoint" />
          </mxGeometry>
        </mxCell>
        <mxCell id="59ImfeG7UWyl2Eb4sFpq-6" value="" style="endArrow=classic;html=1;" edge="1" parent="1">
          <mxGeometry width="50" height="50" relative="1" as="geometry">
            <mxPoint x="130" y="299.5" as="sourcePoint" />
            <mxPoint x="40" y="299.5" as="targetPoint" />
          </mxGeometry>
        </mxCell>
        <mxCell id="59ImfeG7UWyl2Eb4sFpq-7" value="" style="endArrow=classic;html=1;fillColor=#e51400;strokeColor=#B20000;" edge="1" parent="1">
          <mxGeometry width="50" height="50" relative="1" as="geometry">
            <mxPoint x="210" y="160" as="sourcePoint" />
            <mxPoint x="300" y="160" as="targetPoint" />
          </mxGeometry>
        </mxCell>
        <mxCell id="59ImfeG7UWyl2Eb4sFpq-10" value="" style="endArrow=classic;html=1;fillColor=#fa6800;strokeColor=#C73500;" edge="1" parent="1">
          <mxGeometry width="50" height="50" relative="1" as="geometry">
            <mxPoint x="210" y="270" as="sourcePoint" />
            <mxPoint x="300" y="270" as="targetPoint" />
          </mxGeometry>
        </mxCell>
        <mxCell id="59ImfeG7UWyl2Eb4sFpq-11" value="" style="endArrow=classic;html=1;fillColor=#e3c800;strokeColor=#B09500;" edge="1" parent="1">
          <mxGeometry width="50" height="50" relative="1" as="geometry">
            <mxPoint x="210" y="299.31" as="sourcePoint" />
            <mxPoint x="300" y="299.31" as="targetPoint" />
          </mxGeometry>
        </mxCell>
        <mxCell id="59ImfeG7UWyl2Eb4sFpq-30" value="" style="endArrow=classic;html=1;fillColor=#fa6800;strokeColor=#C73500;" edge="1" parent="1">
          <mxGeometry width="50" height="50" relative="1" as="geometry">
            <mxPoint x="210" y="240" as="sourcePoint" />
            <mxPoint x="300" y="240" as="targetPoint" />
          </mxGeometry>
        </mxCell>
        <mxCell id="59ImfeG7UWyl2Eb4sFpq-52" style="edgeStyle=orthogonalEdgeStyle;rounded=0;orthogonalLoop=1;jettySize=auto;html=1;exitX=0.75;exitY=1;exitDx=0;exitDy=0;entryX=1.044;entryY=0.952;entryDx=0;entryDy=0;entryPerimeter=0;" edge="1" parent="1" source="59ImfeG7UWyl2Eb4sFpq-34" target="59ImfeG7UWyl2Eb4sFpq-3">
          <mxGeometry relative="1" as="geometry" />
        </mxCell>
        <mxCell id="59ImfeG7UWyl2Eb4sFpq-53" style="edgeStyle=orthogonalEdgeStyle;rounded=0;orthogonalLoop=1;jettySize=auto;html=1;exitX=0.25;exitY=0;exitDx=0;exitDy=0;entryX=1.018;entryY=0.831;entryDx=0;entryDy=0;entryPerimeter=0;" edge="1" parent="1" source="59ImfeG7UWyl2Eb4sFpq-34" target="59ImfeG7UWyl2Eb4sFpq-4">
          <mxGeometry relative="1" as="geometry">
            <Array as="points">
              <mxPoint x="312" y="180" />
              <mxPoint x="312" y="207" />
            </Array>
          </mxGeometry>
        </mxCell>
        <mxCell id="59ImfeG7UWyl2Eb4sFpq-55" style="edgeStyle=orthogonalEdgeStyle;rounded=0;orthogonalLoop=1;jettySize=auto;html=1;exitX=1;exitY=0.25;exitDx=0;exitDy=0;fillColor=#e51400;strokeColor=#B20000;" edge="1" parent="1" source="59ImfeG7UWyl2Eb4sFpq-34">
          <mxGeometry relative="1" as="geometry">
            <mxPoint x="530" y="205.1379310344828" as="targetPoint" />
          </mxGeometry>
        </mxCell>
        <mxCell id="59ImfeG7UWyl2Eb4sFpq-56" style="edgeStyle=orthogonalEdgeStyle;rounded=0;orthogonalLoop=1;jettySize=auto;html=1;" edge="1" parent="1" target="59ImfeG7UWyl2Eb4sFpq-34">
          <mxGeometry relative="1" as="geometry">
            <mxPoint x="530" y="230" as="sourcePoint" />
          </mxGeometry>
        </mxCell>
        <mxCell id="59ImfeG7UWyl2Eb4sFpq-34" value="changer" style="rounded=1;whiteSpace=wrap;html=1;" vertex="1" parent="1">
          <mxGeometry x="430" y="190" width="60" height="100" as="geometry" />
        </mxCell>
        <mxCell id="59ImfeG7UWyl2Eb4sFpq-43" value="" style="endArrow=classic;html=1;" edge="1" parent="1">
          <mxGeometry width="50" height="50" relative="1" as="geometry">
            <mxPoint x="40.000000000000114" y="279.66" as="sourcePoint" />
            <mxPoint x="130" y="279.66" as="targetPoint" />
          </mxGeometry>
        </mxCell>
        <mxCell id="59ImfeG7UWyl2Eb4sFpq-50" style="edgeStyle=orthogonalEdgeStyle;rounded=0;orthogonalLoop=1;jettySize=auto;html=1;exitX=1;exitY=0.5;exitDx=0;exitDy=0;entryX=0.25;entryY=1;entryDx=0;entryDy=0;fillColor=#e51400;strokeColor=#B20000;" edge="1" parent="1" source="59ImfeG7UWyl2Eb4sFpq-44" target="59ImfeG7UWyl2Eb4sFpq-34">
          <mxGeometry relative="1" as="geometry" />
        </mxCell>
        <mxCell id="59ImfeG7UWyl2Eb4sFpq-44" value="kit kat" style="shape=process;whiteSpace=wrap;html=1;backgroundOutline=1;" vertex="1" parent="1">
          <mxGeometry x="300" y="230" width="70" height="20" as="geometry" />
        </mxCell>
        <mxCell id="59ImfeG7UWyl2Eb4sFpq-54" style="edgeStyle=orthogonalEdgeStyle;rounded=0;orthogonalLoop=1;jettySize=auto;html=1;exitX=1;exitY=0.5;exitDx=0;exitDy=0;entryX=0.578;entryY=0.01;entryDx=0;entryDy=0;entryPerimeter=0;fillColor=#e51400;strokeColor=#B20000;" edge="1" parent="1" source="59ImfeG7UWyl2Eb4sFpq-45" target="59ImfeG7UWyl2Eb4sFpq-34">
          <mxGeometry relative="1" as="geometry" />
        </mxCell>
        <mxCell id="59ImfeG7UWyl2Eb4sFpq-45" value="kit kat" style="shape=process;whiteSpace=wrap;html=1;backgroundOutline=1;" vertex="1" parent="1">
          <mxGeometry x="300" y="150" width="70" height="20" as="geometry" />
        </mxCell>
        <mxCell id="59ImfeG7UWyl2Eb4sFpq-46" value="kit kat" style="shape=process;whiteSpace=wrap;html=1;backgroundOutline=1;" vertex="1" parent="1">
          <mxGeometry x="300" y="290" width="70" height="20" as="geometry" />
        </mxCell>
        <mxCell id="59ImfeG7UWyl2Eb4sFpq-48" value="kit kat" style="shape=process;whiteSpace=wrap;html=1;backgroundOutline=1;" vertex="1" parent="1">
          <mxGeometry x="300" y="260" width="70" height="20" as="geometry" />
        </mxCell>
        <mxCell id="59ImfeG7UWyl2Eb4sFpq-58" style="edgeStyle=orthogonalEdgeStyle;rounded=0;orthogonalLoop=1;jettySize=auto;html=1;" edge="1" parent="1" source="59ImfeG7UWyl2Eb4sFpq-57">
          <mxGeometry relative="1" as="geometry">
            <mxPoint x="680" y="210" as="targetPoint" />
            <Array as="points">
              <mxPoint x="650" y="210" />
              <mxPoint x="650" y="210" />
            </Array>
          </mxGeometry>
        </mxCell>
        <mxCell id="59ImfeG7UWyl2Eb4sFpq-59" style="edgeStyle=orthogonalEdgeStyle;rounded=0;orthogonalLoop=1;jettySize=auto;html=1;" edge="1" parent="1" target="59ImfeG7UWyl2Eb4sFpq-57">
          <mxGeometry relative="1" as="geometry">
            <mxPoint x="680" y="230" as="sourcePoint" />
          </mxGeometry>
        </mxCell>
        <mxCell id="59ImfeG7UWyl2Eb4sFpq-60" style="edgeStyle=orthogonalEdgeStyle;rounded=0;orthogonalLoop=1;jettySize=auto;html=1;exitX=0.25;exitY=1;exitDx=0;exitDy=0;fillColor=#e51400;strokeColor=#B20000;" edge="1" parent="1" source="59ImfeG7UWyl2Eb4sFpq-57">
          <mxGeometry relative="1" as="geometry">
            <mxPoint x="545" y="350" as="targetPoint" />
          </mxGeometry>
        </mxCell>
        <mxCell id="59ImfeG7UWyl2Eb4sFpq-61" style="edgeStyle=orthogonalEdgeStyle;rounded=0;orthogonalLoop=1;jettySize=auto;html=1;" edge="1" parent="1" target="59ImfeG7UWyl2Eb4sFpq-57">
          <mxGeometry relative="1" as="geometry">
            <mxPoint x="560" y="350" as="sourcePoint" />
            <Array as="points">
              <mxPoint x="560" y="320" />
              <mxPoint x="560" y="320" />
            </Array>
          </mxGeometry>
        </mxCell>
        <mxCell id="59ImfeG7UWyl2Eb4sFpq-57" value="main Switch" style="rounded=1;whiteSpace=wrap;html=1;" vertex="1" parent="1">
          <mxGeometry x="530" y="180" width="60" height="100" as="geometry" />
        </mxCell>
        <mxCell id="59ImfeG7UWyl2Eb4sFpq-64" style="edgeStyle=orthogonalEdgeStyle;rounded=0;orthogonalLoop=1;jettySize=auto;html=1;exitX=1;exitY=0.25;exitDx=0;exitDy=0;fillColor=#e51400;strokeColor=#B20000;" edge="1" parent="1" source="59ImfeG7UWyl2Eb4sFpq-62">
          <mxGeometry relative="1" as="geometry">
            <mxPoint x="670" y="374.79310344827593" as="targetPoint" />
          </mxGeometry>
        </mxCell>
        <mxCell id="59ImfeG7UWyl2Eb4sFpq-65" style="edgeStyle=orthogonalEdgeStyle;rounded=0;orthogonalLoop=1;jettySize=auto;html=1;fillColor=#fa6800;strokeColor=#C73500;" edge="1" parent="1" source="59ImfeG7UWyl2Eb4sFpq-62">
          <mxGeometry relative="1" as="geometry">
            <mxPoint x="670" y="400" as="targetPoint" />
          </mxGeometry>
        </mxCell>
        <mxCell id="59ImfeG7UWyl2Eb4sFpq-66" style="edgeStyle=orthogonalEdgeStyle;rounded=0;orthogonalLoop=1;jettySize=auto;html=1;exitX=1;exitY=0.75;exitDx=0;exitDy=0;fillColor=#f0a30a;strokeColor=#BD7000;" edge="1" parent="1" source="59ImfeG7UWyl2Eb4sFpq-62">
          <mxGeometry relative="1" as="geometry">
            <mxPoint x="670" y="425.1379310344828" as="targetPoint" />
          </mxGeometry>
        </mxCell>
        <mxCell id="59ImfeG7UWyl2Eb4sFpq-62" value="pump Switch" style="rounded=1;whiteSpace=wrap;html=1;" vertex="1" parent="1">
          <mxGeometry x="520" y="350" width="60" height="100" as="geometry" />
        </mxCell>
        <mxCell id="59ImfeG7UWyl2Eb4sFpq-63" value="MCB" style="rounded=1;whiteSpace=wrap;html=1;" vertex="1" parent="1">
          <mxGeometry x="680" y="190" width="120" height="60" as="geometry" />
        </mxCell>
        <mxCell id="59ImfeG7UWyl2Eb4sFpq-68" value="" style="endArrow=classic;html=1;fillColor=#e51400;strokeColor=#B20000;" edge="1" parent="1">
          <mxGeometry width="50" height="50" relative="1" as="geometry">
            <mxPoint x="20.000000000000114" y="640" as="sourcePoint" />
            <mxPoint x="110" y="640" as="targetPoint" />
          </mxGeometry>
        </mxCell>
        <mxCell id="59ImfeG7UWyl2Eb4sFpq-69" value="" style="endArrow=classic;html=1;" edge="1" parent="1">
          <mxGeometry width="50" height="50" relative="1" as="geometry">
            <mxPoint x="110" y="680" as="sourcePoint" />
            <mxPoint x="20.000000000000114" y="680" as="targetPoint" />
          </mxGeometry>
        </mxCell>
        <mxCell id="59ImfeG7UWyl2Eb4sFpq-109" style="edgeStyle=orthogonalEdgeStyle;rounded=0;orthogonalLoop=1;jettySize=auto;html=1;exitX=0;exitY=0.75;exitDx=0;exitDy=0;entryX=1;entryY=1;entryDx=0;entryDy=0;" edge="1" parent="1" source="59ImfeG7UWyl2Eb4sFpq-94" target="59ImfeG7UWyl2Eb4sFpq-70">
          <mxGeometry relative="1" as="geometry" />
        </mxCell>
        <mxCell id="59ImfeG7UWyl2Eb4sFpq-70" value="Meter" style="whiteSpace=wrap;html=1;aspect=fixed;" vertex="1" parent="1">
          <mxGeometry x="110" y="720" width="80" height="80" as="geometry" />
        </mxCell>
        <mxCell id="59ImfeG7UWyl2Eb4sFpq-71" value="Meter" style="whiteSpace=wrap;html=1;aspect=fixed;" vertex="1" parent="1">
          <mxGeometry x="110" y="620" width="80" height="80" as="geometry" />
        </mxCell>
        <mxCell id="59ImfeG7UWyl2Eb4sFpq-72" value="" style="endArrow=classic;html=1;fillColor=#e51400;strokeColor=#B20000;" edge="1" parent="1">
          <mxGeometry width="50" height="50" relative="1" as="geometry">
            <mxPoint x="20.000000000000114" y="739.5" as="sourcePoint" />
            <mxPoint x="110" y="739.5" as="targetPoint" />
          </mxGeometry>
        </mxCell>
        <mxCell id="59ImfeG7UWyl2Eb4sFpq-73" value="" style="endArrow=classic;html=1;" edge="1" parent="1">
          <mxGeometry width="50" height="50" relative="1" as="geometry">
            <mxPoint x="110" y="779.5" as="sourcePoint" />
            <mxPoint x="20.000000000000114" y="779.5" as="targetPoint" />
          </mxGeometry>
        </mxCell>
        <mxCell id="59ImfeG7UWyl2Eb4sFpq-74" value="" style="endArrow=classic;html=1;fillColor=#e51400;strokeColor=#B20000;" edge="1" parent="1">
          <mxGeometry width="50" height="50" relative="1" as="geometry">
            <mxPoint x="190" y="640" as="sourcePoint" />
            <mxPoint x="280" y="640" as="targetPoint" />
          </mxGeometry>
        </mxCell>
        <mxCell id="59ImfeG7UWyl2Eb4sFpq-75" value="" style="endArrow=classic;html=1;fillColor=#fa6800;strokeColor=#C73500;" edge="1" parent="1">
          <mxGeometry width="50" height="50" relative="1" as="geometry">
            <mxPoint x="190" y="750" as="sourcePoint" />
            <mxPoint x="280" y="750" as="targetPoint" />
          </mxGeometry>
        </mxCell>
        <mxCell id="59ImfeG7UWyl2Eb4sFpq-76" value="" style="endArrow=classic;html=1;fillColor=#e3c800;strokeColor=#B09500;" edge="1" parent="1">
          <mxGeometry width="50" height="50" relative="1" as="geometry">
            <mxPoint x="190" y="779.31" as="sourcePoint" />
            <mxPoint x="280" y="779.31" as="targetPoint" />
          </mxGeometry>
        </mxCell>
        <mxCell id="59ImfeG7UWyl2Eb4sFpq-77" value="" style="endArrow=classic;html=1;fillColor=#fa6800;strokeColor=#C73500;" edge="1" parent="1">
          <mxGeometry width="50" height="50" relative="1" as="geometry">
            <mxPoint x="190" y="720" as="sourcePoint" />
            <mxPoint x="280" y="720" as="targetPoint" />
          </mxGeometry>
        </mxCell>
        <mxCell id="59ImfeG7UWyl2Eb4sFpq-79" style="edgeStyle=orthogonalEdgeStyle;rounded=0;orthogonalLoop=1;jettySize=auto;html=1;exitX=0.25;exitY=0;exitDx=0;exitDy=0;entryX=1.018;entryY=0.831;entryDx=0;entryDy=0;entryPerimeter=0;" edge="1" parent="1" source="59ImfeG7UWyl2Eb4sFpq-82" target="59ImfeG7UWyl2Eb4sFpq-71">
          <mxGeometry relative="1" as="geometry">
            <Array as="points">
              <mxPoint x="292" y="660" />
              <mxPoint x="292" y="687" />
            </Array>
          </mxGeometry>
        </mxCell>
        <mxCell id="59ImfeG7UWyl2Eb4sFpq-102" style="edgeStyle=orthogonalEdgeStyle;rounded=0;orthogonalLoop=1;jettySize=auto;html=1;fillColor=#e51400;strokeColor=#B20000;" edge="1" parent="1" source="59ImfeG7UWyl2Eb4sFpq-82" target="59ImfeG7UWyl2Eb4sFpq-99">
          <mxGeometry relative="1" as="geometry">
            <Array as="points">
              <mxPoint x="590" y="650" />
              <mxPoint x="590" y="650" />
            </Array>
          </mxGeometry>
        </mxCell>
        <mxCell id="59ImfeG7UWyl2Eb4sFpq-104" style="edgeStyle=orthogonalEdgeStyle;rounded=0;orthogonalLoop=1;jettySize=auto;html=1;exitX=0.75;exitY=1;exitDx=0;exitDy=0;entryX=0.75;entryY=0;entryDx=0;entryDy=0;fillColor=#e51400;strokeColor=#B20000;" edge="1" parent="1" source="59ImfeG7UWyl2Eb4sFpq-82" target="59ImfeG7UWyl2Eb4sFpq-94">
          <mxGeometry relative="1" as="geometry" />
        </mxCell>
        <mxCell id="59ImfeG7UWyl2Eb4sFpq-82" value="MainSwitch" style="rounded=1;whiteSpace=wrap;html=1;" vertex="1" parent="1">
          <mxGeometry x="440" y="600" width="60" height="100" as="geometry" />
        </mxCell>
        <mxCell id="59ImfeG7UWyl2Eb4sFpq-83" value="" style="endArrow=classic;html=1;" edge="1" parent="1">
          <mxGeometry width="50" height="50" relative="1" as="geometry">
            <mxPoint x="20.000000000000114" y="759.6600000000001" as="sourcePoint" />
            <mxPoint x="110" y="759.6600000000001" as="targetPoint" />
          </mxGeometry>
        </mxCell>
        <mxCell id="59ImfeG7UWyl2Eb4sFpq-108" style="edgeStyle=orthogonalEdgeStyle;rounded=0;orthogonalLoop=1;jettySize=auto;html=1;entryX=0;entryY=0.25;entryDx=0;entryDy=0;fillColor=#e51400;strokeColor=#B20000;" edge="1" parent="1" source="59ImfeG7UWyl2Eb4sFpq-85" target="59ImfeG7UWyl2Eb4sFpq-94">
          <mxGeometry relative="1" as="geometry" />
        </mxCell>
        <mxCell id="59ImfeG7UWyl2Eb4sFpq-85" value="kit kat" style="shape=process;whiteSpace=wrap;html=1;backgroundOutline=1;" vertex="1" parent="1">
          <mxGeometry x="280" y="710" width="70" height="20" as="geometry" />
        </mxCell>
        <mxCell id="59ImfeG7UWyl2Eb4sFpq-101" style="edgeStyle=orthogonalEdgeStyle;rounded=0;orthogonalLoop=1;jettySize=auto;html=1;entryX=0.006;entryY=0.41;entryDx=0;entryDy=0;entryPerimeter=0;" edge="1" parent="1" source="59ImfeG7UWyl2Eb4sFpq-87" target="59ImfeG7UWyl2Eb4sFpq-82">
          <mxGeometry relative="1" as="geometry" />
        </mxCell>
        <mxCell id="59ImfeG7UWyl2Eb4sFpq-87" value="kit kat" style="shape=process;whiteSpace=wrap;html=1;backgroundOutline=1;" vertex="1" parent="1">
          <mxGeometry x="280" y="630" width="70" height="20" as="geometry" />
        </mxCell>
        <mxCell id="59ImfeG7UWyl2Eb4sFpq-88" value="kit kat" style="shape=process;whiteSpace=wrap;html=1;backgroundOutline=1;" vertex="1" parent="1">
          <mxGeometry x="280" y="770" width="70" height="20" as="geometry" />
        </mxCell>
        <mxCell id="59ImfeG7UWyl2Eb4sFpq-89" value="kit kat" style="shape=process;whiteSpace=wrap;html=1;backgroundOutline=1;" vertex="1" parent="1">
          <mxGeometry x="280" y="740" width="70" height="20" as="geometry" />
        </mxCell>
        <mxCell id="59ImfeG7UWyl2Eb4sFpq-105" style="edgeStyle=orthogonalEdgeStyle;rounded=0;orthogonalLoop=1;jettySize=auto;html=1;exitX=0.25;exitY=0;exitDx=0;exitDy=0;entryX=0.25;entryY=1;entryDx=0;entryDy=0;" edge="1" parent="1" source="59ImfeG7UWyl2Eb4sFpq-94" target="59ImfeG7UWyl2Eb4sFpq-82">
          <mxGeometry relative="1" as="geometry" />
        </mxCell>
        <mxCell id="59ImfeG7UWyl2Eb4sFpq-107" style="edgeStyle=orthogonalEdgeStyle;rounded=0;orthogonalLoop=1;jettySize=auto;html=1;exitX=1;exitY=0.75;exitDx=0;exitDy=0;entryX=0;entryY=0.75;entryDx=0;entryDy=0;fillColor=#e51400;strokeColor=#B20000;" edge="1" parent="1" source="59ImfeG7UWyl2Eb4sFpq-94" target="59ImfeG7UWyl2Eb4sFpq-98">
          <mxGeometry relative="1" as="geometry" />
        </mxCell>
        <mxCell id="59ImfeG7UWyl2Eb4sFpq-94" value="changer" style="rounded=1;whiteSpace=wrap;html=1;" vertex="1" parent="1">
          <mxGeometry x="440" y="740" width="60" height="100" as="geometry" />
        </mxCell>
        <mxCell id="59ImfeG7UWyl2Eb4sFpq-95" style="edgeStyle=orthogonalEdgeStyle;rounded=0;orthogonalLoop=1;jettySize=auto;html=1;exitX=1;exitY=0.25;exitDx=0;exitDy=0;fillColor=#e51400;strokeColor=#B20000;" edge="1" parent="1" source="59ImfeG7UWyl2Eb4sFpq-98">
          <mxGeometry relative="1" as="geometry">
            <mxPoint x="650" y="765" as="targetPoint" />
          </mxGeometry>
        </mxCell>
        <mxCell id="59ImfeG7UWyl2Eb4sFpq-96" style="edgeStyle=orthogonalEdgeStyle;rounded=0;orthogonalLoop=1;jettySize=auto;html=1;fillColor=#fa6800;strokeColor=#C73500;" edge="1" parent="1" source="59ImfeG7UWyl2Eb4sFpq-98">
          <mxGeometry relative="1" as="geometry">
            <mxPoint x="660" y="790" as="targetPoint" />
          </mxGeometry>
        </mxCell>
        <mxCell id="59ImfeG7UWyl2Eb4sFpq-97" style="edgeStyle=orthogonalEdgeStyle;rounded=0;orthogonalLoop=1;jettySize=auto;html=1;exitX=1;exitY=0.75;exitDx=0;exitDy=0;fillColor=#f0a30a;strokeColor=#BD7000;" edge="1" parent="1" source="59ImfeG7UWyl2Eb4sFpq-98">
          <mxGeometry relative="1" as="geometry">
            <mxPoint x="650" y="815" as="targetPoint" />
          </mxGeometry>
        </mxCell>
        <mxCell id="59ImfeG7UWyl2Eb4sFpq-106" style="edgeStyle=orthogonalEdgeStyle;rounded=0;orthogonalLoop=1;jettySize=auto;html=1;exitX=0;exitY=0.25;exitDx=0;exitDy=0;entryX=1;entryY=0.25;entryDx=0;entryDy=0;" edge="1" parent="1" source="59ImfeG7UWyl2Eb4sFpq-98" target="59ImfeG7UWyl2Eb4sFpq-94">
          <mxGeometry relative="1" as="geometry" />
        </mxCell>
        <mxCell id="59ImfeG7UWyl2Eb4sFpq-98" value="pump Switch" style="rounded=1;whiteSpace=wrap;html=1;" vertex="1" parent="1">
          <mxGeometry x="540" y="740" width="60" height="100" as="geometry" />
        </mxCell>
        <mxCell id="59ImfeG7UWyl2Eb4sFpq-99" value="MCB" style="rounded=1;whiteSpace=wrap;html=1;" vertex="1" parent="1">
          <mxGeometry x="620" y="630" width="120" height="60" as="geometry" />
        </mxCell>
        <mxCell id="59ImfeG7UWyl2Eb4sFpq-103" style="edgeStyle=orthogonalEdgeStyle;rounded=0;orthogonalLoop=1;jettySize=auto;html=1;" edge="1" parent="1">
          <mxGeometry relative="1" as="geometry">
            <mxPoint x="620" y="680" as="sourcePoint" />
            <mxPoint x="500" y="680" as="targetPoint" />
          </mxGeometry>
        </mxCell>
        <mxCell id="59ImfeG7UWyl2Eb4sFpq-110" value="" style="endArrow=classic;html=1;fillColor=#e51400;strokeColor=#B20000;" edge="1" parent="1">
          <mxGeometry width="50" height="50" relative="1" as="geometry">
            <mxPoint x="50.000000000000114" y="1319.31" as="sourcePoint" />
            <mxPoint x="140" y="1319.31" as="targetPoint" />
          </mxGeometry>
        </mxCell>
        <mxCell id="59ImfeG7UWyl2Eb4sFpq-111" value="" style="endArrow=classic;html=1;" edge="1" parent="1">
          <mxGeometry width="50" height="50" relative="1" as="geometry">
            <mxPoint x="140" y="1359.66" as="sourcePoint" />
            <mxPoint x="50.000000000000114" y="1359.66" as="targetPoint" />
          </mxGeometry>
        </mxCell>
        <mxCell id="59ImfeG7UWyl2Eb4sFpq-113" value="Meter" style="whiteSpace=wrap;html=1;aspect=fixed;" vertex="1" parent="1">
          <mxGeometry x="140" y="1300" width="80" height="80" as="geometry" />
        </mxCell>
        <mxCell id="59ImfeG7UWyl2Eb4sFpq-114" value="Meter" style="whiteSpace=wrap;html=1;aspect=fixed;" vertex="1" parent="1">
          <mxGeometry x="170" y="930" width="80" height="80" as="geometry" />
        </mxCell>
        <mxCell id="59ImfeG7UWyl2Eb4sFpq-115" value="" style="endArrow=classic;html=1;fillColor=#e51400;strokeColor=#B20000;" edge="1" parent="1">
          <mxGeometry width="50" height="50" relative="1" as="geometry">
            <mxPoint x="80.00000000000011" y="938.5" as="sourcePoint" />
            <mxPoint x="170" y="938.5" as="targetPoint" />
          </mxGeometry>
        </mxCell>
        <mxCell id="59ImfeG7UWyl2Eb4sFpq-116" value="" style="endArrow=classic;html=1;" edge="1" parent="1">
          <mxGeometry width="50" height="50" relative="1" as="geometry">
            <mxPoint x="170" y="978.5" as="sourcePoint" />
            <mxPoint x="80.00000000000011" y="978.5" as="targetPoint" />
          </mxGeometry>
        </mxCell>
        <mxCell id="59ImfeG7UWyl2Eb4sFpq-117" value="" style="endArrow=classic;html=1;fillColor=#e51400;strokeColor=#B20000;" edge="1" parent="1">
          <mxGeometry width="50" height="50" relative="1" as="geometry">
            <mxPoint x="250" y="950" as="sourcePoint" />
            <mxPoint x="340" y="950" as="targetPoint" />
          </mxGeometry>
        </mxCell>
        <mxCell id="59ImfeG7UWyl2Eb4sFpq-118" value="" style="endArrow=classic;html=1;fillColor=#fa6800;strokeColor=#C73500;" edge="1" parent="1">
          <mxGeometry width="50" height="50" relative="1" as="geometry">
            <mxPoint x="220" y="1330" as="sourcePoint" />
            <mxPoint x="310" y="1330" as="targetPoint" />
          </mxGeometry>
        </mxCell>
        <mxCell id="59ImfeG7UWyl2Eb4sFpq-119" value="" style="endArrow=classic;html=1;fillColor=#e3c800;strokeColor=#B09500;" edge="1" parent="1">
          <mxGeometry width="50" height="50" relative="1" as="geometry">
            <mxPoint x="220" y="1359.31" as="sourcePoint" />
            <mxPoint x="310" y="1359.31" as="targetPoint" />
          </mxGeometry>
        </mxCell>
        <mxCell id="59ImfeG7UWyl2Eb4sFpq-120" value="" style="endArrow=classic;html=1;fillColor=#fa6800;strokeColor=#C73500;" edge="1" parent="1">
          <mxGeometry width="50" height="50" relative="1" as="geometry">
            <mxPoint x="220" y="1300" as="sourcePoint" />
            <mxPoint x="310" y="1300" as="targetPoint" />
          </mxGeometry>
        </mxCell>
        <mxCell id="59ImfeG7UWyl2Eb4sFpq-125" value="" style="endArrow=classic;html=1;" edge="1" parent="1">
          <mxGeometry width="50" height="50" relative="1" as="geometry">
            <mxPoint x="80.00000000000011" y="958.6600000000001" as="sourcePoint" />
            <mxPoint x="170" y="958.6600000000001" as="targetPoint" />
          </mxGeometry>
        </mxCell>
        <mxCell id="59ImfeG7UWyl2Eb4sFpq-151" style="edgeStyle=orthogonalEdgeStyle;rounded=0;orthogonalLoop=1;jettySize=auto;html=1;fillColor=#e51400;strokeColor=#B20000;" edge="1" parent="1" source="59ImfeG7UWyl2Eb4sFpq-127">
          <mxGeometry relative="1" as="geometry">
            <mxPoint x="460" y="1200" as="targetPoint" />
            <Array as="points">
              <mxPoint x="460" y="1300" />
            </Array>
          </mxGeometry>
        </mxCell>
        <mxCell id="59ImfeG7UWyl2Eb4sFpq-127" value="kit kat" style="shape=process;whiteSpace=wrap;html=1;backgroundOutline=1;" vertex="1" parent="1">
          <mxGeometry x="310" y="1290" width="70" height="20" as="geometry" />
        </mxCell>
        <mxCell id="59ImfeG7UWyl2Eb4sFpq-153" style="edgeStyle=orthogonalEdgeStyle;rounded=0;orthogonalLoop=1;jettySize=auto;html=1;entryX=0.661;entryY=0.017;entryDx=0;entryDy=0;entryPerimeter=0;fillColor=#e51400;strokeColor=#B20000;" edge="1" parent="1" source="59ImfeG7UWyl2Eb4sFpq-129" target="59ImfeG7UWyl2Eb4sFpq-157">
          <mxGeometry relative="1" as="geometry">
            <mxPoint x="460" y="1120" as="targetPoint" />
            <Array as="points">
              <mxPoint x="460" y="950" />
            </Array>
          </mxGeometry>
        </mxCell>
        <mxCell id="59ImfeG7UWyl2Eb4sFpq-129" value="kit kat" style="shape=process;whiteSpace=wrap;html=1;backgroundOutline=1;" vertex="1" parent="1">
          <mxGeometry x="340" y="940" width="70" height="20" as="geometry" />
        </mxCell>
        <mxCell id="59ImfeG7UWyl2Eb4sFpq-130" value="kit kat" style="shape=process;whiteSpace=wrap;html=1;backgroundOutline=1;" vertex="1" parent="1">
          <mxGeometry x="310" y="1350" width="70" height="20" as="geometry" />
        </mxCell>
        <mxCell id="59ImfeG7UWyl2Eb4sFpq-131" value="kit kat" style="shape=process;whiteSpace=wrap;html=1;backgroundOutline=1;" vertex="1" parent="1">
          <mxGeometry x="310" y="1320" width="70" height="20" as="geometry" />
        </mxCell>
        <mxCell id="59ImfeG7UWyl2Eb4sFpq-152" value="" style="endArrow=classic;html=1;" edge="1" parent="1">
          <mxGeometry width="50" height="50" relative="1" as="geometry">
            <mxPoint x="440" y="980" as="sourcePoint" />
            <mxPoint x="250.0000000000001" y="980" as="targetPoint" />
          </mxGeometry>
        </mxCell>
        <mxCell id="59ImfeG7UWyl2Eb4sFpq-154" value="" style="endArrow=classic;html=1;fillColor=#e51400;strokeColor=#B20000;" edge="1" parent="1">
          <mxGeometry width="50" height="50" relative="1" as="geometry">
            <mxPoint x="480" y="1160" as="sourcePoint" />
            <mxPoint x="570" y="1160" as="targetPoint" />
          </mxGeometry>
        </mxCell>
        <mxCell id="59ImfeG7UWyl2Eb4sFpq-155" value="" style="endArrow=classic;html=1;fillColor=#e51400;strokeColor=#B20000;" edge="1" parent="1">
          <mxGeometry width="50" height="50" relative="1" as="geometry">
            <mxPoint x="460" y="1300" as="sourcePoint" />
            <mxPoint x="550" y="1300" as="targetPoint" />
          </mxGeometry>
        </mxCell>
        <mxCell id="59ImfeG7UWyl2Eb4sFpq-156" value="" style="endArrow=classic;html=1;" edge="1" parent="1">
          <mxGeometry width="50" height="50" relative="1" as="geometry">
            <mxPoint x="440" y="1200" as="sourcePoint" />
            <mxPoint x="440" y="1380" as="targetPoint" />
          </mxGeometry>
        </mxCell>
        <mxCell id="59ImfeG7UWyl2Eb4sFpq-157" value="changer 1" style="rounded=1;whiteSpace=wrap;html=1;" vertex="1" parent="1">
          <mxGeometry x="420" y="1140" width="60" height="60" as="geometry" />
        </mxCell>
        <mxCell id="59ImfeG7UWyl2Eb4sFpq-158" value="" style="endArrow=classic;html=1;" edge="1" parent="1">
          <mxGeometry width="50" height="50" relative="1" as="geometry">
            <mxPoint x="440" y="1139.9999999999998" as="sourcePoint" />
            <mxPoint x="440" y="980" as="targetPoint" />
          </mxGeometry>
        </mxCell>
        <mxCell id="59ImfeG7UWyl2Eb4sFpq-159" value="" style="endArrow=classic;html=1;" edge="1" parent="1">
          <mxGeometry width="50" height="50" relative="1" as="geometry">
            <mxPoint x="570" y="1179.9999999999998" as="sourcePoint" />
            <mxPoint x="480" y="1179.9999999999998" as="targetPoint" />
          </mxGeometry>
        </mxCell>
        <mxCell id="59ImfeG7UWyl2Eb4sFpq-160" value="main switch" style="rounded=0;whiteSpace=wrap;html=1;" vertex="1" parent="1">
          <mxGeometry x="570" y="1140" width="50" height="60" as="geometry" />
        </mxCell>
        <mxCell id="59ImfeG7UWyl2Eb4sFpq-161" value="" style="endArrow=classic;html=1;fillColor=#e51400;strokeColor=#B20000;" edge="1" parent="1">
          <mxGeometry width="50" height="50" relative="1" as="geometry">
            <mxPoint x="580" y="1139.9999999999998" as="sourcePoint" />
            <mxPoint x="580" y="979.9999999999998" as="targetPoint" />
          </mxGeometry>
        </mxCell>
        <mxCell id="59ImfeG7UWyl2Eb4sFpq-162" value="" style="endArrow=classic;html=1;" edge="1" parent="1">
          <mxGeometry width="50" height="50" relative="1" as="geometry">
            <mxPoint x="600" y="979.9999999999998" as="sourcePoint" />
            <mxPoint x="600" y="1139.9999999999998" as="targetPoint" />
          </mxGeometry>
        </mxCell>
        <mxCell id="59ImfeG7UWyl2Eb4sFpq-163" value="" style="shape=process;whiteSpace=wrap;html=1;backgroundOutline=1;" vertex="1" parent="1">
          <mxGeometry x="530" y="920" width="120" height="60" as="geometry" />
        </mxCell>
        <mxCell id="59ImfeG7UWyl2Eb4sFpq-165" style="edgeStyle=orthogonalEdgeStyle;rounded=0;orthogonalLoop=1;jettySize=auto;html=1;exitX=0;exitY=0.75;exitDx=0;exitDy=0;" edge="1" parent="1" source="59ImfeG7UWyl2Eb4sFpq-164">
          <mxGeometry relative="1" as="geometry">
            <mxPoint x="220" y="1379.9999999999998" as="targetPoint" />
            <Array as="points">
              <mxPoint x="540" y="1325" />
              <mxPoint x="540" y="1380" />
            </Array>
          </mxGeometry>
        </mxCell>
        <mxCell id="59ImfeG7UWyl2Eb4sFpq-168" style="edgeStyle=orthogonalEdgeStyle;rounded=0;orthogonalLoop=1;jettySize=auto;html=1;exitX=1;exitY=0.25;exitDx=0;exitDy=0;fillColor=#e51400;strokeColor=#B20000;" edge="1" parent="1" source="59ImfeG7UWyl2Eb4sFpq-164">
          <mxGeometry relative="1" as="geometry">
            <mxPoint x="700" y="1294.7931034482758" as="targetPoint" />
          </mxGeometry>
        </mxCell>
        <mxCell id="59ImfeG7UWyl2Eb4sFpq-164" value="changer 2" style="rounded=1;whiteSpace=wrap;html=1;" vertex="1" parent="1">
          <mxGeometry x="550" y="1280" width="60" height="60" as="geometry" />
        </mxCell>
        <mxCell id="59ImfeG7UWyl2Eb4sFpq-166" value="" style="endArrow=classic;html=1;fillColor=#e51400;strokeColor=#B20000;exitX=0.334;exitY=-0.006;exitDx=0;exitDy=0;exitPerimeter=0;entryX=0.334;entryY=-0.006;entryDx=0;entryDy=0;entryPerimeter=0;" edge="1" parent="1" target="59ImfeG7UWyl2Eb4sFpq-164">
          <mxGeometry width="50" height="50" relative="1" as="geometry">
            <mxPoint x="570" y="1200" as="sourcePoint" />
            <mxPoint x="570" y="1270" as="targetPoint" />
          </mxGeometry>
        </mxCell>
        <mxCell id="59ImfeG7UWyl2Eb4sFpq-167" value="" style="endArrow=classic;html=1;" edge="1" parent="1">
          <mxGeometry width="50" height="50" relative="1" as="geometry">
            <mxPoint x="595" y="1280" as="sourcePoint" />
            <mxPoint x="594.66" y="1200" as="targetPoint" />
          </mxGeometry>
        </mxCell>
        <mxCell id="59ImfeG7UWyl2Eb4sFpq-169" value="" style="endArrow=classic;html=1;" edge="1" parent="1">
          <mxGeometry width="50" height="50" relative="1" as="geometry">
            <mxPoint x="700" y="1320.0000000000002" as="sourcePoint" />
            <mxPoint x="610" y="1320.0000000000002" as="targetPoint" />
          </mxGeometry>
        </mxCell>
        <mxCell id="59ImfeG7UWyl2Eb4sFpq-170" value="" style="shape=cylinder3;whiteSpace=wrap;html=1;boundedLbl=1;backgroundOutline=1;size=15;" vertex="1" parent="1">
          <mxGeometry x="700" y="1270" width="60" height="80" as="geometry" />
        </mxCell>
        <mxCell id="59ImfeG7UWyl2Eb4sFpq-171" value="" style="shape=process;whiteSpace=wrap;html=1;backgroundOutline=1;" vertex="1" parent="1">
          <mxGeometry x="285" y="1580" width="120" height="210" as="geometry" />
        </mxCell>
        <mxCell id="59ImfeG7UWyl2Eb4sFpq-172" value="" style="endArrow=classic;html=1;" edge="1" parent="1">
          <mxGeometry width="50" height="50" relative="1" as="geometry">
            <mxPoint x="160" y="1379.6600000000003" as="sourcePoint" />
            <mxPoint x="70" y="1379.6600000000003" as="targetPoint" />
          </mxGeometry>
        </mxCell>
        <mxCell id="59ImfeG7UWyl2Eb4sFpq-173" value="" style="shape=process;whiteSpace=wrap;html=1;backgroundOutline=1;" vertex="1" parent="1">
          <mxGeometry x="490" y="1580" width="120" height="210" as="geometry" />
        </mxCell>
        <mxCell id="59ImfeG7UWyl2Eb4sFpq-174" value="" style="rounded=0;whiteSpace=wrap;html=1;" vertex="1" parent="1">
          <mxGeometry x="320" y="1580" width="10" height="60" as="geometry" />
        </mxCell>
        <mxCell id="59ImfeG7UWyl2Eb4sFpq-175" value="" style="rounded=0;whiteSpace=wrap;html=1;" vertex="1" parent="1">
          <mxGeometry x="360" y="1580" width="10" height="60" as="geometry" />
        </mxCell>
        <mxCell id="59ImfeG7UWyl2Eb4sFpq-176" value="" style="rounded=0;whiteSpace=wrap;html=1;" vertex="1" parent="1">
          <mxGeometry x="520" y="1580" width="10" height="60" as="geometry" />
        </mxCell>
        <mxCell id="59ImfeG7UWyl2Eb4sFpq-177" value="" style="rounded=0;whiteSpace=wrap;html=1;" vertex="1" parent="1">
          <mxGeometry x="565" y="1580" width="10" height="60" as="geometry" />
        </mxCell>
        <mxCell id="59ImfeG7UWyl2Eb4sFpq-178" value="" style="rounded=0;whiteSpace=wrap;html=1;" vertex="1" parent="1">
          <mxGeometry x="320" y="1730" width="10" height="60" as="geometry" />
        </mxCell>
        <mxCell id="59ImfeG7UWyl2Eb4sFpq-179" value="" style="rounded=0;whiteSpace=wrap;html=1;" vertex="1" parent="1">
          <mxGeometry x="360" y="1730" width="10" height="60" as="geometry" />
        </mxCell>
        <mxCell id="59ImfeG7UWyl2Eb4sFpq-180" value="" style="rounded=0;whiteSpace=wrap;html=1;" vertex="1" parent="1">
          <mxGeometry x="520" y="1730" width="10" height="60" as="geometry" />
        </mxCell>
        <mxCell id="59ImfeG7UWyl2Eb4sFpq-181" value="" style="rounded=0;whiteSpace=wrap;html=1;" vertex="1" parent="1">
          <mxGeometry x="565" y="1730" width="10" height="60" as="geometry" />
        </mxCell>
        <mxCell id="59ImfeG7UWyl2Eb4sFpq-182" value="" style="endArrow=classic;html=1;" edge="1" parent="1">
          <mxGeometry width="50" height="50" relative="1" as="geometry">
            <mxPoint x="320" y="1580" as="sourcePoint" />
            <mxPoint x="320" y="1490" as="targetPoint" />
          </mxGeometry>
        </mxCell>
      </root>
    </mxGraphModel>
  </diagram>
</mxfile>
